<?xml version="1.0" standalone="no"?>
<!DOCTYPE svg PUBLIC "-//W3C//DTD SVG 20010904//EN"
 "http://www.w3.org/TR/2001/REC-SVG-20010904/DTD/svg10.dtd">
<svg version="1.0" xmlns="http://www.w3.org/2000/svg"
 width="600.000000pt" height="566.000000pt" viewBox="0 0 600.000000 566.000000"
 preserveAspectRatio="xMidYMid meet">
<g transform="translate(0.000000,566.000000) scale(0.100000,-0.100000)"
fill="#000000" stroke="none">
<path d="M1322 4870 c-245 -65 -449 -270 -512 -516 -19 -73 -20 -113 -20 -691
l0 -613 65 69 c149 157 354 257 574 277 l71 7 2 386 3 386 478 3 477 2 0 355
0 355 -532 -1 c-491 0 -539 -2 -606 -19z"/>
<path d="M2640 4145 l0 -745 355 0 355 0 0 390 0 390 233 0 c171 0 249 -4 296
-15 259 -61 422 -326 356 -580 -23 -85 -62 -152 -130 -220 -33 -33 -83 -72
-111 -87 -108 -58 -107 -58 -848 -58 l-681 0 173 -173 c94 -95 172 -177 172
-182 0 -5 -78 -88 -172 -183 l-173 -173 750 3 750 3 98 27 c215 59 394 162
548 317 158 158 258 332 316 551 34 129 43 352 19 489 -88 507 -489 900 -996
977 -74 11 -226 14 -702 14 l-608 0 0 -745z"/>
<path d="M1335 3201 c-205 -50 -377 -187 -470 -372 -77 -155 -76 -146 -73
-894 l3 -660 27 -73 c70 -190 193 -330 363 -412 166 -80 27 -74 1638 -77 790
-2 1437 -1 1437 2 0 3 -106 165 -237 360 l-236 355 -1144 0 -1143 0 0 535 0
535 264 0 264 0 181 183 181 182 -178 178 -177 177 -315 -1 c-263 0 -327 -3
-385 -18z"/>
<path d="M4108 2368 c-135 -34 -285 -48 -512 -48 -147 0 -177 -2 -173 -14 11
-29 1049 -1577 1060 -1582 7 -2 200 -3 430 -2 l417 3 -558 835 -557 835 -107
-27z"/>
</g>
</svg>
